# xmcd CD database file
#
# Track frame offsets:
#	150
#	21254
#	42104
#	57033
#	79006
#	101358
#	122570
#	142433
#	164196
#	185051
#	214674
#	234475
#	253074
#
# Disc length: 3962 seconds
#
# Revision: 0
# Processed by: cddbd v1.5.2PL0 Copyright (c) Steve Scherf et al.
# Submitted via: CDex 1.70beta2
#
DISCID=ba0f780d
DTITLE=Wynton and Ellis Marsalis - Joe Cool´s Blues
DYEAR=1995
DGENRE=Jazz
TTITLE0=Linus and Lucy
TTITLE1=Buggy Ride
TTITLE2=Peppermint Patty
TTITLE3=On Peanuts Playground
TTITLE4=Oh, good Grief!
TTITLE5=Wright Brothers Rag
TTITLE6=Charly Brown
TTITLE7=Little Red-Haired Girl
TTITLE8=Pebble Beach
TTITLE9=Snoopy and Woodstock
TTITLE10=Little Bride
TTITLE11=Why, Charly Brown
TTITLE12=Joe Cools´s Blues (Snoopy´s Return)
EXTD=YEAR: 1995
EXTT0=
EXTT1=
EXTT2=
EXTT3=
EXTT4=
EXTT5=
EXTT6=
EXTT7=
EXTT8=
EXTT9=
EXTT10=
EXTT11=
EXTT12=
PLAYORDER=
